<svg width="1200" height="420" viewBox="0 0 1200 420" xmlns="http://www.w3.org/2000/svg">
  <g fill="none" stroke="#6A4E2F" stroke-linecap="round" stroke-linejoin="round">
    <path d="M180 180C220 120 330 98 430 118C500 132 542 182 540 240C538 306 480 350 408 356C312 364 222 310 190 240C182 222 178 202 180 180Z" stroke-width="20" />
    <path d="M660 240C658 182 700 132 770 118C870 98 980 120 1020 180C1022 202 1018 222 1010 240C978 310 888 364 792 356C720 350 662 306 660 240Z" stroke-width="20" />
    <path d="M540 198C580 176 620 176 660 198" stroke-width="14" />
    <path d="M188 176H96" stroke-width="14" />
    <path d="M1012 176H1104" stroke-width="14" />
  </g>
  <g fill="#d9b98f" fill-opacity="0.11">
    <path d="M205 198C230 150 320 132 410 146C468 156 504 196 504 240C504 292 456 328 402 332C320 336 244 286 216 234C208 220 204 208 205 198Z" />
    <path d="M695 240C695 196 731 156 789 146C879 132 969 150 994 198C995 208 991 220 983 234C955 286 879 336 797 332C743 328 695 292 695 240Z" />
  </g>
</svg>
