<svg width="1200" height="420" viewBox="0 0 1200 420" xmlns="http://www.w3.org/2000/svg">
  <g fill="none" stroke="#181818" stroke-linecap="round" stroke-linejoin="round">
    <path d="M190 234C176 166 242 110 346 102C430 96 518 124 558 176C592 220 578 282 526 318C468 358 360 366 274 338C228 324 200 286 190 234Z" stroke-width="20" />
    <path d="M1010 234C1024 166 958 110 854 102C770 96 682 124 642 176C608 220 622 282 674 318C732 358 840 366 926 338C972 324 1000 286 1010 234Z" stroke-width="20" />
    <path d="M558 214H642" stroke-width="14" />
    <path d="M210 194H108" stroke-width="14" />
    <path d="M990 194H1092" stroke-width="14" />
  </g>
  <g fill="#f2dfcf" fill-opacity="0.18">
    <path d="M226 228C216 180 264 136 344 130C412 126 484 148 514 186C538 216 528 262 486 290C438 322 350 328 282 306C252 296 234 270 226 228Z" />
    <path d="M974 228C984 180 936 136 856 130C788 126 716 148 686 186C662 216 672 262 714 290C762 322 850 328 918 306C948 296 966 270 974 228Z" />
  </g>
</svg>
