<svg width="1200" height="420" viewBox="0 0 1200 420" xmlns="http://www.w3.org/2000/svg">
  <g fill="none" stroke="#0f1418" stroke-linecap="round" stroke-linejoin="round">
    <path d="M176 188C222 126 338 98 462 108C568 118 640 166 650 218C660 272 612 320 528 344C412 378 250 344 194 272C174 246 168 216 176 188Z" stroke-width="22" />
    <path d="M1024 188C978 126 862 98 738 108C632 118 560 166 550 218C540 272 588 320 672 344C788 378 950 344 1006 272C1026 246 1032 216 1024 188Z" stroke-width="22" />
    <path d="M650 206C620 184 580 184 550 206" stroke-width="14" />
    <path d="M198 182H104" stroke-width="14" />
    <path d="M1002 182H1096" stroke-width="14" />
  </g>
  <g fill="#2f3f4a" fill-opacity="0.2">
    <path d="M210 198C246 150 344 128 452 136C532 142 592 178 602 220C610 254 570 288 504 308C404 338 278 314 234 262C214 238 206 216 210 198Z" />
    <path d="M990 198C954 150 856 128 748 136C668 142 608 178 598 220C590 254 630 288 696 308C796 338 922 314 966 262C986 238 994 216 990 198Z" />
  </g>
</svg>
